<svg width="256" height="256" viewBox="0 0 256 256" fill="none" xmlns="http://www.w3.org/2000/svg">
<path d="M234.186 87.9943C241.686 112.494 236.686 138.494 219.186 158.494C230.686 178.994 232.186 203.994 222.186 225.494C212.186 246.994 191.186 260.994 167.186 263.494C148.686 281.994 123.686 291.994 98.1857 289.494C72.6857 286.994 50.1857 272.494 36.6857 251.494C14.1857 244.994 -4.31429 229.494 -13.8143 208.994C-23.3143 188.494 -23.8143 164.994 -15.3143 143.994C-22.8143 119.494 -17.8143 93.4943 -0.314285 73.4943C-11.8143 52.9943 -13.3143 27.9943 -3.31429 6.49429C6.68571 -15.0057 27.6857 -29.0057 51.6857 -31.5057C70.1857 -50.0057 95.1857 -60.0057 120.686 -57.5057C146.186 -55.0057 168.686 -40.5057 182.186 -19.5057C204.686 -13.0057 223.186 2.49429 232.686 22.9943C242.186 43.4943 242.686 66.9943 234.186 87.9943Z" fill="#10A37F"/>
<path d="M128 64C88.24 64 56 96.24 56 136C56 175.76 88.24 208 128 208C167.76 208 200 175.76 200 136C200 96.24 167.76 64 128 64ZM128 88C103.68 88 84 107.68 84 132C84 156.32 103.68 176 128 176C152.32 176 172 156.32 172 132C172 107.68 152.32 88 128 88Z" fill="white"/>
<circle cx="128" cy="132" r="28" fill="white"/>
</svg>

